<svg width="960" height="540" viewBox="0 0 960 540" fill="none" xmlns="http://www.w3.org/2000/svg">
<g clip-path="url(#clip0_2417_2116)">
<path d="M966.635 -3.03491H-4.31464V541.16H966.635V-3.03491Z" fill="#FFECE6"/>
<path d="M816.695 387.55C816.9 396.56 817.635 417.945 821.94 423.2C829.02 431.85 839.4 413.34 841.76 403.905C844.12 394.47 846.32 344.56 842.385 305.24C838.455 265.92 831.2 248.335 797.72 219.885C780.52 205.27 768.725 200.55 763.795 195.625C758.4 186.855 763.68 177.965 765.475 160.9C767.05 145.96 765.01 125.615 737.95 127.87C723.605 129.065 718.8 146.165 717.32 154.295C716.94 156.385 715.235 158.03 713.12 158.185C710.825 158.355 708.13 159.425 707.28 163.255C706.4 167.225 709.225 168.965 711.88 169.735C714.03 170.355 715.42 172.435 715.205 174.66C714.995 176.84 714.9 179.765 715.245 183.245C716.03 191.11 721.8 194.61 721.8 194.61C721.8 194.61 681.33 225.38 673.465 248.975C665.6 272.565 658.525 341.77 657.735 363.005C656.945 384.24 675.82 472.315 675.82 478.605C675.82 484.895 669.53 496.69 663.235 500.625C656.945 504.555 656.945 508.49 656.945 508.49H712L737.95 385.025L783.56 508.49H834.675C834.675 508.49 831.79 504.035 827.335 500.89C825.9 499.875 824.485 498.985 823.245 498.245C820.535 496.635 818.815 493.775 818.62 490.63L812.745 395.555C813.365 398.975 816.27 389.98 816.695 387.55Z" fill="url(#paint0_linear_2417_2116)"/>
<path d="M796.146 220.41C782.256 208.61 769.816 200.93 763.741 196.715L733.856 221.355L717.081 197.765C706.726 206.51 678.236 230.48 671.891 249.51C664.346 272.145 657.526 336.765 656.291 360.72H717.241L722.486 330.77L736.116 360.72H804.896L806.471 372.515L842.916 364.01C843.346 343.54 843.861 323.15 841.861 303.14C837.926 263.82 829.626 248.855 796.146 220.41Z" fill="white"/>
<path d="M763.22 195.835L734.545 221.195L738.055 238.3L763.795 195.625C763.795 195.625 798.61 214.705 820.63 243.015C835.63 262.3 841.61 284.61 843.435 322.44C845.01 355.04 842.65 371.195 841.86 390.855C841.075 410.515 837.04 424.345 827.705 424.67C818.37 425 818.27 412.875 818.27 408.155C818.27 403.435 815.91 385.35 815.91 385.35C815.91 385.35 815.125 397.935 810.405 398.72C805.685 399.505 804.9 394 806.475 382.99C808.05 371.98 805.645 356.7 804.9 346.03C802.125 306.275 780.52 261.1 767.94 254.02C761.085 250.165 754.57 250.875 757.715 261.1C760.86 271.325 768.975 275.285 775.8 279.185C786.81 285.475 802.54 279.97 802.54 279.97" stroke="#323232" stroke-width="3.373" stroke-miterlimit="10" stroke-linecap="round" stroke-linejoin="round"/>
<path d="M723.796 181.61C722.221 185.02 718.551 185.28 716.571 185.05" stroke="#323232" stroke-width="1.49911" stroke-miterlimit="10" stroke-linecap="round" stroke-linejoin="round"/>
<path d="M729.658 158.28C729.756 156.643 728.888 155.259 727.719 155.189C726.55 155.12 725.524 156.39 725.426 158.028C725.328 159.665 726.197 161.049 727.365 161.119C728.534 161.188 729.561 159.917 729.658 158.28Z" fill="#323232"/>
<path d="M752.41 157.4C761.655 155.415 765.43 166.705 758.05 170.66" stroke="#323232" stroke-width="1.49911" stroke-miterlimit="10" stroke-linecap="round" stroke-linejoin="round"/>
<path d="M740.631 195.2C737.486 194.94 736.146 190.775 736.146 188.15C736.146 185.525 736.916 182.915 736.646 180.3C736.206 176.08 732.896 172.42 728.85 171.15C724.805 169.875 720.14 170.18 716.675 172.63" stroke="#323232" stroke-width="1.49911" stroke-miterlimit="10" stroke-linecap="round" stroke-linejoin="round"/>
<path d="M720.93 193.575C727.97 193.72 731.785 188.855 732.405 185.195C733.31 179.85 730.685 170.85 723.55 170.34" stroke="#323232" stroke-width="1.49911" stroke-miterlimit="10" stroke-linecap="round" stroke-linejoin="round"/>
<path d="M717.766 198.125L732.446 221.195L721.961 234.825L717.766 198.125Z" stroke="#323232" stroke-width="3.373" stroke-miterlimit="10" stroke-linecap="round" stroke-linejoin="round"/>
<path d="M721.961 234.825L725.105 266.28L738.055 238.3" stroke="#323232" stroke-width="3.373" stroke-miterlimit="10" stroke-linecap="round" stroke-linejoin="round"/>
<path d="M725.106 266.28V333.39" stroke="#323232" stroke-width="3.373" stroke-miterlimit="10" stroke-linecap="round" stroke-linejoin="round"/>
<path d="M736.276 280.96C738.302 280.96 739.946 279.317 739.946 277.29C739.946 275.263 738.302 273.62 736.276 273.62C734.249 273.62 732.605 275.263 732.605 277.29C732.605 279.317 734.249 280.96 736.276 280.96Z" stroke="#323232" stroke-width="3.373" stroke-miterlimit="10" stroke-linecap="round" stroke-linejoin="round"/>
<path d="M736.276 313.99C738.302 313.99 739.946 312.347 739.946 310.32C739.946 308.293 738.302 306.65 736.276 306.65C734.249 306.65 732.605 308.293 732.605 310.32C732.605 312.347 734.249 313.99 736.276 313.99Z" stroke="#323232" stroke-width="3.373" stroke-miterlimit="10" stroke-linecap="round" stroke-linejoin="round"/>
<path d="M823.511 393.315C823.511 403.1 823.511 412.89 823.511 422.675" stroke="#323232" stroke-width="1.49911" stroke-miterlimit="10"/>
<path d="M828.75 394.365C828.75 404.15 828.75 413.94 828.75 423.725" stroke="#323232" stroke-width="1.49911" stroke-miterlimit="10"/>
<path d="M835.046 393.315C835.046 403.1 835.046 412.89 835.046 422.675" stroke="#323232" stroke-width="1.49911" stroke-miterlimit="10"/>
<path d="M299.836 100.619C299.836 98.9595 301.181 97.6195 302.836 97.6195H700.696C702.351 97.6195 703.696 98.9645 703.696 100.619V361.699H299.836V100.619Z" fill="#EBEEF9"/>
<path d="M299.41 110.915H704.13V100.625C704.13 98.7299 702.595 97.1949 700.7 97.1949C393.09 97.1949 610.45 97.2299 302.84 97.1949C300.945 97.1949 299.41 98.7299 299.41 100.625V110.915V110.915Z" fill="#202641"/>
<path d="M299.836 100.62C299.836 98.9597 301.181 97.6197 302.836 97.6197H700.696C702.351 97.6197 703.696 98.9647 703.696 100.62V361.7H299.836V100.62Z" stroke="#202641" stroke-width="1.12433"/>
<path d="M490.79 123.84H322.305V201.43H490.79V123.84Z" stroke="#323232" stroke-width="1.49911" stroke-miterlimit="10"/>
<path d="M677.761 123.84H509.276V201.43H677.761V123.84Z" stroke="#323232" stroke-width="1.49911" stroke-miterlimit="10"/>
<path d="M678.811 216.11H321.256V293.7H678.811V216.11Z" stroke="#323232" stroke-width="1.49911" stroke-miterlimit="10"/>
<path d="M667.661 327.85H593.651C587.986 327.85 583.396 323.26 583.396 317.595C583.396 311.93 587.986 307.34 593.651 307.34H667.661C673.326 307.34 677.916 311.93 677.916 317.595C677.921 323.255 673.326 327.85 667.661 327.85Z" fill="white"/>
<path d="M260.531 164.665C260.531 164.665 266.376 162.01 265.846 156.695C265.316 151.38 261.066 148.195 258.406 147.66C255.751 147.13 248.576 148.455 248.576 148.455L260.531 164.665Z" fill="#FF3C00"/>
<path d="M258.405 193.32C266.015 191.455 270.45 187.24 272.685 179.565C274.385 173.73 271.735 165.975 271.735 165.975L265.975 168.335C265.975 168.335 264.705 165.935 260.625 159.45C256.665 153.16 249.945 154.13 249.945 154.13L227.76 164.2L234.79 198.77C234.79 198.77 245.55 196.47 258.405 193.32Z" fill="url(#paint1_linear_2417_2116)"/>
<path d="M279.431 293.975C280.576 288.89 283.786 274.78 285.556 268.58C287.736 260.945 295.371 254.405 293.191 242.41C291.011 230.415 282.286 220.6 282.286 220.6L288.131 212.02L237.571 203.15L243.026 218.415C243.026 218.415 192.861 250.04 168.871 270.76C144.881 291.48 142.701 301.295 149.241 316.56C154.971 329.935 193.951 316.56 209.221 316.56C193.956 341.64 188.501 363.45 184.141 383.08C179.781 402.71 172.146 426.7 156.876 447.42C141.606 468.14 141.611 464.87 137.246 476.865C132.886 488.86 132.886 496.495 132.886 496.495L125.251 508.49H174.951C174.951 508.49 204.396 449.6 214.211 421.25C224.026 392.895 241.476 351.455 241.476 351.455L238.666 508.49H274.651C274.651 508.49 265.926 498.675 269.196 493.225C272.466 487.77 280.101 480.14 282.281 472.505C284.461 464.87 277.921 438.7 276.826 429.975C275.736 421.25 279.006 404.895 283.371 395.08C287.731 385.265 291.166 349.4 287.731 329.65C284.791 312.73 281.356 300.29 279.431 293.975ZM202.676 290.39L240.846 259.855L246.341 277.035C239.616 279.68 232.296 283.58 232.296 283.58L233.211 293.39C231.306 294.34 229.446 295.375 227.756 296.49V279.485L202.676 290.39Z" fill="url(#paint2_linear_2417_2116)"/>
<path d="M279.431 293.975C280.576 288.89 283.786 274.78 285.556 268.58C287.736 260.945 295.371 254.405 293.191 242.41C291.011 230.415 282.286 220.6 282.286 220.6L288.131 212.02L233.361 201.605L243.031 218.415C243.031 218.415 193.741 252.185 169.751 272.905C145.761 293.625 141.561 301.835 149.246 316.56C155.886 329.29 167.306 329.095 178.936 325.82L204.861 316.56L232.136 315.72L231.031 276.21L208.196 284.785L239.651 258.92L246.451 278.07C246.451 278.07 254.216 272.935 262.181 274.925C274.766 278.07 276.336 294.585 276.336 294.585L279.526 294.265C279.491 294.175 279.456 294.07 279.431 293.975Z" fill="white"/>
<path d="M252.321 147.83C252.321 147.83 249.231 153.65 249.701 167.35C250.186 181.5 257.141 201.36 257.141 201.36L219.946 216.24C219.946 216.24 221.156 208.25 218.041 200.605C214.926 192.96 206.311 166.025 223.136 156.48C239.961 146.935 252.321 147.83 252.321 147.83Z" fill="#FF3C00"/>
<path d="M244.111 275.125C241.781 271.165 240.461 260.31 238.411 256.195C236.921 253.2 235.466 249.96 235.861 246.635C236.256 243.31 239.266 240.075 242.556 240.695C245.681 242.52 246.436 246.94 245.191 250.335C243.946 253.735 241.211 256.335 238.531 258.77C225.221 270.885 211.151 282.175 196.436 292.545C207.511 287.04 229.666 276.035 229.666 276.035L232.111 317.655C232.111 317.655 221.206 312.2 210.026 316.59C200.491 320.33 190.541 322.49 180.816 325.705C171.091 328.92 159.131 329.58 151.841 322.385C145.186 315.82 144.986 304.725 148.901 296.24C152.816 287.75 160.001 281.29 167.086 275.195C190.771 254.805 215.466 235.59 241.051 217.645L236.996 210.45" stroke="#323232" stroke-width="2.99822" stroke-miterlimit="10" stroke-linecap="round" stroke-linejoin="round"/>
<path d="M255.476 168.44L262.016 167.355" stroke="#323232" stroke-width="1.49911" stroke-miterlimit="10" stroke-linecap="round" stroke-linejoin="round"/>
<path d="M263.751 176.63C267.421 181.35 272.141 178.725 272.141 178.725" stroke="#323232" stroke-width="1.49911" stroke-miterlimit="10" stroke-linecap="round" stroke-linejoin="round"/>
<path d="M257.82 205.8L288.125 211.235L282.28 220.6L288.915 230.895" stroke="#323232" stroke-width="2.99822" stroke-miterlimit="10" stroke-linecap="round" stroke-linejoin="round"/>
<path d="M286.291 276.765L276.331 294.59" stroke="#323232" stroke-width="2.99822" stroke-miterlimit="10" stroke-linecap="round" stroke-linejoin="round"/>
<path d="M257.116 288.685C261.276 293.3 264.756 298.535 267.396 304.165" stroke="#323232" stroke-width="1.49911" stroke-miterlimit="10"/>
<path d="M261.836 286.325C265.996 290.94 269.476 296.175 272.116 301.805" stroke="#323232" stroke-width="1.49911" stroke-miterlimit="10"/>
<path d="M265.766 283.965C269.926 288.58 273.406 293.815 276.046 299.445" stroke="#323232" stroke-width="1.49911" stroke-miterlimit="10"/>
<path d="M256.251 194.615C256.251 194.615 265.471 192.465 270.931 186.225C274.601 182.03 275.126 177.835 274.601 172.595C274.076 167.35 273.026 166.305 273.026 166.305L265.981 168.335C265.981 168.335 263.066 158.965 259.396 156.345C255.726 153.725 252.056 153.725 252.056 153.725" stroke="#323232" stroke-width="2.99822" stroke-miterlimit="10" stroke-linecap="round" stroke-linejoin="round"/>
<path d="M379.166 91.0947C390.016 96.6697 404.271 94.6947 413.196 86.3797C422.121 78.0647 425.096 63.9847 420.296 52.7697C414.011 38.0747 396.291 30.6647 380.421 32.5697C365.146 34.3997 351.541 43.1797 336.496 46.3847C327.421 48.3147 316.026 47.0747 311.781 38.8297" stroke="#9C89D4" stroke-width="5.24689" stroke-miterlimit="10" stroke-linecap="round" stroke-linejoin="round"/>
<path d="M385.381 82.2597C384.331 70.7247 371.751 59.7147 357.071 60.7647C343.436 61.7397 329.286 70.7247 320.896 70.7247C314.691 70.7247 309.926 69.0047 307.861 68.1097C306.081 63.3597 302.881 57.9647 297.306 56.5697C291.201 55.0447 286.821 58.6647 286.821 58.6647C286.821 58.6647 278.431 59.7147 275.286 67.0547C272.141 74.3947 276.336 83.3047 276.336 83.3047C276.336 83.3047 270.571 88.5497 276.861 90.1197C283.186 91.6997 291.116 88.4397 297.626 84.6547L301.506 96.9347H382.246C382.236 96.9397 386.426 93.7947 385.381 82.2597Z" fill="#9C89D4"/>
<path d="M300.141 80.3998C295.396 85.3948 291.211 90.9248 287.691 96.8548C284.446 102.32 281.701 108.74 283.321 114.885C283.556 115.775 283.906 116.68 284.606 117.275C286.556 118.93 289.691 117.015 290.571 114.615C291.446 112.21 291.056 109.525 291.661 107.04C292.561 103.34 295.541 100.525 298.636 98.3148C301.731 96.1048 305.141 94.2197 307.641 91.3497C310.141 88.4797 311.556 84.2197 309.851 80.8197C308.146 77.4147 302.541 76.3698 300.546 79.6098" fill="#9C89D4"/>
<path d="M270.041 110.05C266.706 112.83 262.151 115.285 259.651 118.835C258.731 120.14 257.896 121.825 258.571 123.27C259.726 125.745 263.556 124.9 265.786 123.32C281.576 112.15 294.976 101.055 306.741 87.5048C308.921 84.9948 310.996 82.1898 308.556 79.9298C301.906 73.7798 282.621 99.5648 270.041 110.05Z" fill="#9C89D4"/>
<path d="M297.301 56.5747C297.301 56.5747 268.991 51.8547 267.416 57.6247C266.711 60.2047 282.096 62.8697 282.096 62.8697L297.301 56.5747Z" fill="#9C89D4"/>
<path d="M302.386 76.2997C297.396 80.7947 294.561 85.1897 290.646 90.6497C286.736 96.1097 284.916 105.76 285.086 112.475C285.151 115.035 285.691 116.73 288.231 116.405C290.026 116.18 290.896 112.69 291.566 111.01C293.436 106.32 295.311 101.63 297.181 96.9347C298.126 94.5597 299.161 92.0697 301.196 90.5247C304.411 88.0797 308.921 88.7897 312.911 89.4147C322.186 90.8597 332.456 90.9697 340.051 85.4497C341.881 84.1197 343.611 82.2197 343.551 79.9647C343.491 77.7047 340.566 75.7397 338.876 77.2447C337.776 78.2247 337.846 79.9297 338.006 81.3947C338.421 85.2297 338.141 92.1247 338.556 95.9597" stroke="#323232" stroke-width="2.99822" stroke-miterlimit="10" stroke-linecap="round" stroke-linejoin="round"/>
<path d="M295.326 77.0848C293.361 85.3898 284.021 91.1548 275.716 89.1998C275.361 86.1598 275.006 83.1198 274.646 80.0798C274.141 75.7748 273.656 71.2898 275.111 67.2098C276.566 63.1298 280.581 59.6048 284.871 60.2398C279.221 59.6198 273.576 58.9998 267.926 58.3798C273.751 56.6248 279.671 54.8598 285.751 54.7948C291.831 54.7298 298.206 56.5948 302.296 61.0998C305.301 64.4098 307.326 69.2348 311.656 70.3498C314.586 71.1048 322.041 70.7998 328.336 69.2248C337.041 67.0498 342.741 62.7898 350.356 61.3598C362.941 58.9998 369.091 62.2598 372.376 64.5048" stroke="#323232" stroke-width="2.99822" stroke-miterlimit="10" stroke-linecap="round" stroke-linejoin="round"/>
<path d="M294.671 56.7897C292.001 59.2197 289.331 61.6547 286.661 64.0847C291.201 62.2847 295.946 61.0097 300.771 60.2897" stroke="#323232" stroke-width="2.99822" stroke-miterlimit="10" stroke-linecap="round" stroke-linejoin="round"/>
<path d="M275.645 82.5947C278.47 82.7647 280.97 85.2647 281.135 88.0947" stroke="#323232" stroke-width="2.99822" stroke-miterlimit="10" stroke-linecap="round" stroke-linejoin="round"/>
<path d="M282.331 77.0847C283.416 77.0847 284.296 76.205 284.296 75.1197C284.296 74.0345 283.416 73.1547 282.331 73.1547C281.245 73.1547 280.366 74.0345 280.366 75.1197C280.366 76.205 281.245 77.0847 282.331 77.0847Z" fill="#323232"/>
<path d="M422.326 87.4647C430.176 78.6547 432.516 65.3147 428.146 54.3547" stroke="#323232" stroke-width="1.49911" stroke-miterlimit="10"/>
<path d="M378.176 250.925C380.041 249.97 380.771 247.685 379.816 245.82C379.711 245.615 379.586 245.425 379.451 245.245C379.611 244.435 379.516 243.565 379.106 242.775C378.151 240.91 375.866 240.18 374.001 241.135C372.801 241.75 372.071 242.92 371.961 244.17C371.516 244.22 371.071 244.345 370.646 244.56C368.781 245.515 368.051 247.8 369.006 249.665C369.961 251.53 372.246 252.26 374.111 251.305C374.326 251.195 374.526 251.065 374.711 250.92C375.761 251.46 377.046 251.505 378.176 250.925Z" fill="white"/>
<path d="M357.331 232.99C357.331 231.18 355.866 229.715 354.056 229.715C353.856 229.715 353.661 229.735 353.471 229.77C352.911 229.325 352.206 229.06 351.436 229.06C349.626 229.06 348.161 230.525 348.161 232.335C348.161 233.5 348.771 234.52 349.691 235.1C349.551 235.46 349.476 235.855 349.476 236.265C349.476 238.075 350.941 239.54 352.751 239.54C354.561 239.54 356.026 238.075 356.026 236.265C356.026 236.055 356.006 235.85 355.966 235.65C356.791 235.055 357.331 234.09 357.331 232.99Z" fill="white"/>
<path d="M498.621 504.3H596.396C596.396 504.3 594.036 455.805 589.316 441.65C584.596 427.495 573.586 406.26 555.501 397.61" fill="#FCFAE6"/>
<path d="M498.621 504.3H596.396C596.396 504.3 594.036 455.805 589.316 441.65C584.596 427.495 573.586 406.26 555.501 397.61" stroke="#323232" stroke-width="1.49911" stroke-miterlimit="10"/>
<path d="M336.096 294.59H288.911H275.521C275.526 294.72 275.541 294.85 275.541 294.985C275.541 299.545 271.846 303.24 267.286 303.24C263.971 303.24 261.121 301.285 259.806 298.465C251.406 304 246.906 314.685 250.186 325.265L305.686 504.295H498.616C498.616 504.295 496.201 470.665 484.071 440.015" fill="#FCFAE6"/>
<path d="M336.096 294.59H288.911H275.521C275.526 294.72 275.541 294.85 275.541 294.985C275.541 299.545 271.846 303.24 267.286 303.24C263.971 303.24 261.121 301.285 259.806 298.465C251.406 304 246.906 314.685 250.186 325.265L305.686 504.295H498.616C498.616 504.295 496.201 470.665 484.071 440.015" stroke="#323232" stroke-width="1.49911" stroke-miterlimit="10"/>
<path d="M233.181 304.19C240.801 298.59 252.126 291.28 252.126 291.28C252.126 291.28 257.001 297.025 259.761 299.875C262.576 302.78 266.451 305.42 270.606 303.42C272.821 302.355 274.296 300.225 274.866 297.835C276.066 292.84 273.896 288.175 271.781 283.77C267.421 274.67 256.266 271.14 247.481 276.1C241.991 279.2 236.671 282.365 233.206 283.855" stroke="#323232" stroke-width="2.99822" stroke-miterlimit="10" stroke-linecap="round" stroke-linejoin="round"/>
<path d="M633.886 380.575C628.991 383.37 626.896 386.865 621.651 389.66C616.406 392.455 609.066 393.155 596.486 391.06C585.741 389.27 481.911 368.97 450.391 362.75C455.371 360.655 457.736 360.165 464.286 357.77C473.886 354.26 473.461 349.905 472.761 345.275C472.046 340.545 466.381 335.14 457.731 335.14C449.081 335.14 438.331 332.345 438.331 332.345L435.726 322.545L426.291 333.03L411.596 339.425L398.491 321.34C398.491 321.34 446.811 295.04 457.036 287.96C467.261 280.88 466.821 271.535 461.931 263.93C455.791 254.395 404.931 236.2 399.366 230.64C396.221 227.495 391.941 223.39 389.581 219.455C384.861 211.59 372.281 212.03 373.066 219.89C374.166 230.875 382.931 240.415 388.531 246.015C389.581 247.065 392.726 247.765 386.436 250.91C380.146 254.055 377.611 257.2 381.541 260.345C385.471 263.49 389.756 259.21 397.621 259.995C405.486 260.78 418.591 270.48 418.591 270.48C418.591 270.48 370.071 298.935 364.416 299.84C359.201 300.675 354.666 299.995 351.346 299.055C347.951 298.095 345.041 295.91 343.146 292.935L337.681 284.37C337.681 284.37 345.546 285.945 348.691 282.01C351.836 278.08 348.691 270.475 348.691 270.475C348.691 270.475 342.751 271.525 340.651 269.775C338.086 267.64 338.206 265.93 338.206 265.93L348.691 265.495L346.596 259.99C346.596 259.99 352.101 260.425 352.886 256.495C353.671 252.565 337.506 236.575 331.216 233.425C324.926 230.28 300.806 230.98 297.661 249.85C295.741 261.38 312.516 286.725 312.516 286.725C314.091 289.085 320.381 300.095 321.166 303.24C321.951 306.385 313.916 317.22 312.341 330.59C310.766 343.96 313.011 361.895 320.381 371.66C327.371 380.92 336.806 390.36 375.606 388.61C378.581 388.475 381.696 387.935 384.891 387.095C393.051 387.52 410.841 388.435 423.141 388.96C439.566 389.66 452.501 396.65 459.491 402.24C466.481 407.83 474.956 420.775 477.666 428.105C482.386 440.86 475.901 451.08 482.561 468.3C488.676 484.115 499.686 489.27 505.281 495.215C510.871 501.155 509.126 505 509.126 505L559.456 505.7C559.456 505.7 558.406 502.905 551.066 499.76C543.726 496.615 546.171 498.01 541.631 492.77C537.086 487.525 535.341 467.255 530.796 450.83C526.871 436.64 520.336 423.495 511.421 410.045C514.291 410.26 518.126 410.845 521.011 412.385C526.256 415.18 536.391 423.22 559.806 424.62C583.226 426.02 588.466 421.475 597.901 419.375C607.336 417.28 606.641 421.82 612.931 424.27C619.221 426.715 624.816 428.815 624.816 428.815L641.941 378.135C641.921 378.125 638.776 377.775 633.886 380.575Z" fill="url(#paint3_linear_2417_2116)"/>
<path d="M479.226 430.64C476.866 422.775 474.176 418.51 467.031 409.995C459.741 401.305 450.816 394.755 439.901 392.11" fill="#FCFAE6"/>
<path d="M479.226 430.64C476.866 422.775 474.176 418.51 467.031 409.995C459.741 401.305 450.816 394.755 439.901 392.11" stroke="#323232" stroke-width="1.49911" stroke-miterlimit="10"/>
<path d="M324.301 376.38C309.361 369.3 303.591 353.31 298.351 334.44C293.106 315.565 288.916 294.595 288.916 294.595" stroke="#323232" stroke-width="1.49911" stroke-miterlimit="10"/>
<path d="M439.906 392.105C419.816 387.235 399.736 388.415 376.991 387.385" stroke="#323232" stroke-width="1.49911" stroke-miterlimit="10"/>
<path d="M399.981 323.66C393.561 324.185 385.406 323.435 378.651 318.27C371.816 313.04 367.036 305.345 363.996 299.075C363.891 299.1 363.796 299.12 363.711 299.135C358.496 299.97 353.961 299.29 350.641 298.35C347.896 297.575 345.471 295.995 343.636 293.85L360.561 316.7L320.431 302.46C320.436 302.485 320.446 302.52 320.456 302.545C320.786 303.86 319.571 306.515 317.936 310.135C319.396 310.8 321.246 311.655 323.601 312.77C338.541 319.85 344.046 328.5 349.551 337.935C355.056 347.37 357.416 355.235 357.416 355.235L410.891 338.72L399.981 323.66Z" fill="white"/>
<path d="M321.941 304.03L360.476 315.825L337.671 284.37C337.671 284.37 345.536 284.37 348.681 282.01C351.826 279.65 349.206 272.05 349.206 272.05C349.206 272.05 345.796 274.41 341.341 271C337.696 268.215 337.671 266.28 337.671 266.28L348.681 265.495L346.586 259.99C346.586 259.99 352.351 260.075 352.876 256.495C353.401 252.915 340.031 239.545 329.806 234.825" stroke="#323232" stroke-width="3.373" stroke-miterlimit="10" stroke-linecap="round" stroke-linejoin="round"/>
<path d="M410.021 340.204C410.021 340.204 402.421 326.049 401.951 325.184C386.236 325.144 373.406 314.734 365.981 300.884C388.376 288.739 408.856 277.639 431.251 265.494C438.161 262.464 440.951 273.619 435.181 275.719C431.936 276.899 424.861 271.044 421.811 269.429C415.806 266.244 412.806 265.659 406.871 262.349C400.936 259.039 399.791 257.629 391.931 258.419C389.926 258.619 383.971 259.699 381.961 259.689C381.941 259.689 381.921 259.689 381.901 259.689C379.311 259.629 378.581 256.109 380.861 254.869C385.316 252.444 391.151 247.409 391.151 247.409C391.151 247.409 386.446 244.449 380.926 237.974C362.841 216.739 380.141 210.189 385.906 216.479C397.771 229.424 412.141 240.699 429.701 247.474C437.631 250.534 450.311 255.029 457.206 259.994C464.106 264.959 467.431 272.579 465.856 278.869C463.461 288.439 451.396 294.759 442.481 298.984C435.051 302.504 427.621 306.024 420.191 309.544" stroke="#323232" stroke-width="3.373" stroke-miterlimit="10" stroke-linecap="round" stroke-linejoin="round"/>
<path d="M340.816 229.585C340.816 226.11 338.001 223.295 334.526 223.295C333.706 223.295 332.921 223.455 332.201 223.745C331.476 221.07 329.041 219.1 326.136 219.1C323.736 219.1 321.651 220.445 320.591 222.42C319.776 219.885 317.406 218.05 314.601 218.05C311.386 218.05 308.741 220.46 308.361 223.575C307.241 221.83 305.291 220.675 303.066 220.675C299.591 220.675 296.776 223.49 296.776 226.965C296.776 227.475 296.846 227.97 296.961 228.45C295.996 227.845 294.856 227.49 293.631 227.49C290.156 227.49 287.341 230.305 287.341 233.78C287.341 234.93 287.656 236.005 288.196 236.935C284.811 237.04 282.101 239.805 282.101 243.215C282.101 245.24 283.061 247.035 284.546 248.185C281.926 248.945 280.006 251.36 280.006 254.225C280.006 257.295 282.206 259.845 285.111 260.4C283.311 261.505 282.106 263.49 282.106 265.76C282.106 269.235 284.921 272.05 288.396 272.05C288.411 272.05 288.426 272.05 288.441 272.05C287.131 273.205 286.301 274.89 286.301 276.77C286.301 280.245 289.116 283.06 292.591 283.06C294.046 283.06 295.381 282.56 296.451 281.73C295.996 282.6 295.736 283.585 295.736 284.63C295.736 288.105 298.551 290.92 302.026 290.92C303.766 290.92 305.341 290.21 306.481 289.07C307.621 290.215 309.196 290.92 310.936 290.92C314.411 290.92 317.226 288.105 317.226 284.63C317.226 284.56 317.216 284.495 317.216 284.425C319.931 283.73 321.946 281.27 321.946 278.335C321.946 276.46 321.116 274.785 319.816 273.63C318.506 274.605 316.891 275.19 315.131 275.19C310.786 275.19 307.266 271.67 307.266 267.325C307.266 262.98 310.786 259.46 315.131 259.46C315.766 259.46 316.376 259.545 316.966 259.685C317.136 259.115 317.231 258.515 317.231 257.89C317.231 256.77 316.936 255.725 316.426 254.815C318.741 253.885 320.376 251.625 320.376 248.98C320.376 248.005 320.146 247.08 319.751 246.255C320.576 246.655 321.496 246.88 322.476 246.88C325.411 246.88 327.866 244.87 328.561 242.155C329.646 244.04 331.676 245.31 334.006 245.31C337.481 245.31 340.296 242.495 340.296 239.02C340.296 237.26 339.571 235.67 338.406 234.53C339.871 233.38 340.816 231.59 340.816 229.585Z" fill="#FF3C00"/>
<path d="M470.935 297.285C469.485 297.355 468.18 297.915 467.16 298.79C466.855 298.265 466.48 297.79 466.05 297.38C466.135 296.915 466.175 296.435 466.15 295.945C465.98 292.475 463.035 289.795 459.56 289.965C457.92 290.045 456.46 290.75 455.39 291.835C454.375 291.195 453.17 290.84 451.885 290.87C452.085 290.2 452.185 289.49 452.15 288.75C451.98 285.28 449.03 282.6 445.56 282.77C442.09 282.94 439.41 285.885 439.58 289.36C439.615 290.1 439.785 290.8 440.05 291.445C436.655 291.695 434.06 294.6 434.225 298.02C434.36 300.78 436.255 303.03 438.77 303.755C438.745 304.04 438.73 304.33 438.745 304.625C438.915 308.095 441.865 310.775 445.335 310.605C448.805 310.435 451.485 307.485 451.315 304.015C451.305 303.805 451.285 303.6 451.255 303.395C451.61 303.44 451.97 303.46 452.34 303.44C453.49 303.385 454.55 303.02 455.45 302.435C455.715 305.81 458.615 308.385 462.02 308.22C463.47 308.15 464.775 307.59 465.795 306.715C466.935 308.69 469.11 309.975 471.545 309.855C475.015 309.685 477.695 306.74 477.525 303.265C477.355 299.795 474.41 297.12 470.935 297.285Z" fill="white"/>
<path d="M432.701 301.075L440.616 333.72C440.616 333.72 452.596 332.53 455.996 333.72C462.986 336.165 467.671 340.32 467.671 340.32L479.236 302.755L432.701 301.075Z" fill="#FCFAE6"/>
<path d="M447.266 301.58L449.706 333.725" stroke="#323232" stroke-width="1.49911" stroke-miterlimit="10"/>
<path d="M463.861 302.88L459.971 336.395" stroke="#323232" stroke-width="1.49911" stroke-miterlimit="10"/>
<path d="M478.546 302.695L432.701 301.075L440.616 333.725" stroke="#323232" stroke-width="1.49911" stroke-miterlimit="10"/>
<path d="M334.151 255.07C335.312 254.916 336.078 253.473 335.863 251.847C335.648 250.221 334.532 249.027 333.371 249.181C332.211 249.334 331.444 250.777 331.659 252.403C331.875 254.029 332.99 255.223 334.151 255.07Z" fill="#323232"/>
<path d="M339.436 325.795C348.731 334.905 355.371 346.695 358.336 359.37C359.516 364.405 358.011 371.94 352.876 371.33C349.261 370.9 347.771 365.925 349.441 362.69C351.116 359.455 354.656 357.7 358.021 356.315C373.871 349.78 390.866 346.62 407.381 342.03C419.426 338.68 433.176 332.41 435.136 320.065C436.081 324.645 437.021 329.23 437.966 333.81C446.036 332.495 456.046 332.885 463.491 336.27C472.141 340.2 474.696 347.78 470.121 354.555C465.146 361.925 454.201 360.245 445.311 360.415C423.416 360.835 405.456 377.14 385.041 385.08C368.926 391.345 350.451 391.535 334.656 384.495C316.431 376.37 309.861 353.455 311.711 336.265" stroke="#323232" stroke-width="3.373" stroke-miterlimit="10" stroke-linecap="round" stroke-linejoin="round"/>
<path d="M317.326 258.66C313.991 258.035 310.351 259.665 308.591 262.565C306.831 265.465 307.066 269.445 309.161 272.115" stroke="#323232" stroke-width="1.49911" stroke-miterlimit="10"/>
<path d="M442.301 339.625C451.126 337.98 461.006 339.905 469.786 341.775" stroke="#323232" stroke-width="1.49911" stroke-miterlimit="10"/>
<path d="M441.496 347.354C441.496 347.354 462.086 345.146 472.056 347.649" stroke="#323232" stroke-width="1.49911" stroke-miterlimit="10"/>
<path d="M440.711 354.494C440.711 354.494 459.181 353.315 468.206 355.179" stroke="#323232" stroke-width="1.49911" stroke-miterlimit="10"/>
<path d="M379.211 215.244C382.986 222.159 388.156 228.309 394.321 233.219" stroke="#323232" stroke-width="1.49911" stroke-miterlimit="10"/>
<path d="M375.276 218.39C379.051 225.305 384.221 231.455 390.386 236.365" stroke="#323232" stroke-width="1.49911" stroke-miterlimit="10"/>
<path d="M357.331 232.99C357.331 231.18 355.866 229.715 354.056 229.715C353.856 229.715 353.661 229.735 353.471 229.77C352.911 229.325 352.206 229.06 351.436 229.06C349.626 229.06 348.161 230.525 348.161 232.335C348.161 233.5 348.771 234.52 349.691 235.1C349.551 235.46 349.476 235.855 349.476 236.265C349.476 238.075 350.941 239.54 352.751 239.54C354.561 239.54 356.026 238.075 356.026 236.265C356.026 236.055 356.006 235.85 355.966 235.65C356.791 235.055 357.331 234.09 357.331 232.99Z" stroke="black" stroke-width="1.49911" stroke-linecap="round"/>
<path d="M378.176 250.925C380.041 249.97 380.771 247.685 379.816 245.82C379.711 245.615 379.586 245.425 379.451 245.245C379.611 244.435 379.516 243.565 379.106 242.775C378.151 240.91 375.866 240.18 374.001 241.135C372.801 241.75 372.071 242.92 371.961 244.17C371.516 244.22 371.071 244.345 370.646 244.56C368.781 245.515 368.051 247.8 369.006 249.665C369.961 251.53 372.246 252.26 374.111 251.305C374.326 251.195 374.526 251.065 374.711 250.92C375.761 251.46 377.046 251.505 378.176 250.925Z" stroke="#323232" stroke-width="1.49911" stroke-miterlimit="10"/>
<path d="M614.5 144C580.667 190.167 504.218 281.964 475.5 266.5C449.5 252.5 562 196.5 569.5 246.5C575.5 286.5 539.333 327.833 520.5 343.5" stroke="#FF3C00" stroke-width="4" stroke-linecap="round"/>
<path d="M684.01 146.205L601.41 120.59L620.526 204.93L642.021 185.05L685.74 232.315L706.235 213.35L662.516 166.09L684.01 146.205Z" fill="white"/>
<path d="M643.16 134.325L601.41 120.59L620.526 204.93L642.021 185.05L685.74 232.315L706.235 213.35L662.516 166.09L673.355 156.065L684.01 146.205" stroke="#323232" stroke-width="1.49911" stroke-miterlimit="10"/>
</g>
<defs>
<linearGradient id="paint0_linear_2417_2116" x1="656.952" y1="318.098" x2="844.542" y2="318.098" gradientUnits="userSpaceOnUse">
<stop stop-color="#968BCD"/>
<stop offset="0.1035" stop-color="#9B94D1"/>
<stop offset="0.276" stop-color="#A9AEDC"/>
<stop offset="0.495" stop-color="#BFD8ED"/>
<stop offset="0.6141" stop-color="#CDF1F8"/>
</linearGradient>
<linearGradient id="paint1_linear_2417_2116" x1="227.762" y1="176.423" x2="273.253" y2="176.423" gradientUnits="userSpaceOnUse">
<stop stop-color="#FFCCDD"/>
<stop offset="1" stop-color="#FFE05E"/>
</linearGradient>
<linearGradient id="paint2_linear_2417_2116" x1="125.247" y1="355.823" x2="293.574" y2="355.823" gradientUnits="userSpaceOnUse">
<stop stop-color="#FFCCDD"/>
<stop offset="1" stop-color="#FFE05E"/>
</linearGradient>
<linearGradient id="paint3_linear_2417_2116" x1="411.742" y1="467.624" x2="492.808" y2="256.439" gradientUnits="userSpaceOnUse">
<stop stop-color="#FF3C00"/>
<stop offset="0.4134" stop-color="#FE885D"/>
<stop offset="1" stop-color="#FCFAE6"/>
</linearGradient>
<clipPath id="clip0_2417_2116">
<rect width="960" height="540" fill="white"/>
</clipPath>
</defs>
</svg>
