<svg width="16" height="16" viewBox="0 0 16 16" fill="none" xmlns="http://www.w3.org/2000/svg">
<path d="M12.5 2H8.50003C8.36742 2 8.24024 2.05268 8.14647 2.14645C8.05271 2.24021 8.00003 2.36739 8.00003 2.5C8.00003 2.63261 8.05271 2.75979 8.14647 2.85355C8.24024 2.94732 8.36742 3 8.50003 3H12.5C12.8979 3 13.2794 3.15804 13.5607 3.43934C13.842 3.72064 14 4.10218 14 4.5V12.395C13.9943 12.8357 13.8146 13.2563 13.5 13.565C13.2372 13.8364 12.8777 13.9928 12.5 14C11.79 14 11.18 13.465 10.47 12.85C9.50003 12.025 8.34003 11 6.50003 11C3.27003 11 1.17003 14.09 1.08503 14.225C1.01218 14.3346 0.985497 14.4686 1.01077 14.5977C1.03604 14.7269 1.11123 14.8409 1.22003 14.915C1.2745 14.9519 1.33571 14.9776 1.40014 14.9908C1.46458 15.0039 1.53098 15.0042 1.59554 14.9917C1.6601 14.9792 1.72155 14.954 1.77637 14.9177C1.8312 14.8813 1.87831 14.8346 1.91503 14.78C1.93503 14.75 3.81003 12 6.50003 12C7.96503 12 8.90003 12.815 9.81003 13.605C10.595 14.29 11.41 15 12.5 15C12.8191 14.9971 13.1345 14.9311 13.4279 14.8058C13.7214 14.6805 13.9872 14.4984 14.21 14.27C14.711 13.7741 14.995 13.0999 15 12.395V4.5C15 3.83696 14.7366 3.20107 14.2678 2.73223C13.799 2.26339 13.1631 2 12.5 2Z" fill="#FF3C00"/>
<path d="M3.03507 7.68495C3.06443 7.76397 3.11328 7.83428 3.1771 7.88935C3.24091 7.94442 3.31761 7.98247 3.40007 7.99995H3.50007C3.56588 8.00033 3.63111 7.98772 3.69203 7.96284C3.75295 7.93795 3.80835 7.90129 3.85507 7.85495L5.00007 6.70495L7.14507 8.85495C7.19156 8.90181 7.24686 8.93901 7.30779 8.9644C7.36872 8.98978 7.43407 9.00285 7.50007 9.00285C7.56608 9.00285 7.63143 8.98978 7.69236 8.9644C7.75329 8.93901 7.80859 8.90181 7.85507 8.85495C7.90194 8.80847 7.93914 8.75317 7.96452 8.69224C7.9899 8.63131 8.00297 8.56596 8.00297 8.49995C8.00297 8.43395 7.9899 8.36859 7.96452 8.30766C7.93914 8.24673 7.90194 8.19143 7.85507 8.14495L5.70507 5.99995L6.85507 4.85495C6.91403 4.79632 6.95743 4.72392 6.98135 4.6443C7.00527 4.56467 7.00896 4.48033 6.99209 4.39892C6.97521 4.31751 6.9383 4.2416 6.88469 4.17804C6.83108 4.11449 6.76247 4.06531 6.68507 4.03495L1.68507 2.03495C1.59421 1.99858 1.49467 1.98968 1.39879 2.00934C1.30292 2.02901 1.21492 2.07639 1.14571 2.14559C1.07651 2.2148 1.02913 2.30279 1.00947 2.39867C0.989799 2.49455 0.998702 2.59409 1.03507 2.68495L3.03507 7.68495ZM5.61007 4.68495L3.68507 6.60995L2.39507 3.39495L5.61007 4.68495Z" fill="#FF3C00"/>
</svg>
