<svg width="16" height="16" viewBox="0 0 16 16" fill="none" xmlns="http://www.w3.org/2000/svg">
<path d="M9.70495 4.78495C9.03243 4.24586 8.18463 3.97389 7.32401 4.02114C6.46339 4.06838 5.65047 4.43153 5.041 5.041C4.43153 5.65047 4.06838 6.46339 4.02114 7.32401C3.97389 8.18463 4.24586 9.03243 4.78495 9.70495C5.11133 10.1107 5.52484 10.4378 5.99483 10.6619C6.46482 10.8861 6.97924 11.0016 7.49995 10.9999H9.49995C9.89777 10.9999 10.2793 10.8419 10.5606 10.5606C10.8419 10.2793 10.9999 9.89777 10.9999 9.49995V7.49995C11.0016 6.97924 10.8861 6.46482 10.6619 5.99483C10.4378 5.52484 10.1107 5.11133 9.70495 4.78495ZM9.99995 9.49995C9.99995 9.63256 9.94727 9.75973 9.8535 9.8535C9.75973 9.94727 9.63256 9.99995 9.49995 9.99995H7.49995C7.12815 9.99973 6.76108 9.91658 6.42547 9.75656C6.08987 9.59654 5.79418 9.36369 5.55995 9.07495C5.32398 8.78112 5.15663 8.4383 5.07012 8.07151C4.98362 7.70473 4.98014 7.32325 5.05995 6.95495C5.16292 6.49023 5.39641 6.06456 5.73299 5.72799C6.06956 5.39141 6.49523 5.15792 6.95995 5.05495C7.13777 5.01932 7.3186 5.00091 7.49995 4.99995C8.16299 4.99995 8.79887 5.26334 9.26772 5.73218C9.73656 6.20102 9.99995 6.83691 9.99995 7.49995V9.49995Z" fill="#FF3C00"/>
<path d="M7.5 0C5.51088 0 3.60322 0.790176 2.1967 2.1967C0.790176 3.60322 0 5.51088 0 7.5C0 9.48912 0.790176 11.3968 2.1967 12.8033C3.60322 14.2098 5.51088 15 7.5 15H13C13.5304 15 14.0391 14.7893 14.4142 14.4142C14.7893 14.0391 15 13.5304 15 13V7.5C15 5.51088 14.2098 3.60322 12.8033 2.1967C11.3968 0.790176 9.48912 0 7.5 0ZM14 13C14 13.2652 13.8946 13.5196 13.7071 13.7071C13.5196 13.8946 13.2652 14 13 14H7.5C6.21442 14 4.95771 13.6188 3.88879 12.9046C2.81987 12.1903 1.98675 11.1752 1.49478 9.98744C1.00281 8.79972 0.874092 7.49279 1.1249 6.23191C1.3757 4.97104 1.99476 3.81285 2.90381 2.90381C3.81285 1.99476 4.97104 1.3757 6.23191 1.1249C7.49279 0.874092 8.79972 1.00281 9.98744 1.49478C11.1752 1.98675 12.1903 2.81987 12.9046 3.88879C13.6188 4.95771 14 6.21442 14 7.5V13Z" fill="#FF3C00"/>
</svg>
