<svg width="521" height="178" viewBox="0 0 521 178" fill="none" xmlns="http://www.w3.org/2000/svg">
<mask id="mask0_148_224" style="mask-type:luminance" maskUnits="userSpaceOnUse" x="0" y="0" width="400" height="104">
<path d="M399.998 0H0V103.213H399.998V0Z" fill="white"/>
</mask>
<g mask="url(#mask0_148_224)">
<path d="M104.648 78.2608V0.102875H116.799V30.9082C120.623 25.2102 126.373 22.3743 134.023 22.3743C140.553 22.3743 145.601 24.2996 149.165 28.1763C152.729 32.0269 154.525 37.4126 154.525 44.3074V78.2608H142.374V45.9986C142.374 37.0744 138.394 32.6253 130.432 32.6253C126.451 32.6253 123.199 33.8221 120.649 36.2158C118.1 38.6094 116.825 41.9917 116.825 46.3367V78.2608H104.648Z" fill="#020203"/>
<path d="M211.915 71.522C206.503 76.9077 199.712 79.6136 191.543 79.6136C183.373 79.6136 176.557 76.9077 171.119 71.522C165.681 66.1363 162.949 59.2676 162.949 50.9419C162.949 42.6161 165.681 35.7734 171.119 30.4137C176.557 25.054 183.373 22.3741 191.543 22.3741C199.712 22.3741 206.503 25.054 211.915 30.4137C217.326 35.7734 220.006 42.6161 220.006 50.9419C220.032 59.2676 217.326 66.1103 211.915 71.522ZM180.017 64.6533C182.905 68.0356 186.756 69.7008 191.543 69.7008C196.356 69.7008 200.181 68.0096 203.069 64.6533C205.957 61.271 207.388 56.7178 207.414 50.9419C207.414 45.2439 205.957 40.7168 203.017 37.3345C200.103 33.9521 196.252 32.2609 191.543 32.2869C186.729 32.2869 182.905 33.9521 180.017 37.2824C177.129 40.6127 175.672 45.1659 175.672 50.9419C175.698 56.7178 177.129 61.297 180.017 64.6533Z" fill="#020203"/>
<path d="M248.161 79.6139C236.973 79.6139 231.379 73.6297 231.379 61.6355V33.9784H222.949V23.7534H231.717L234.527 7.67429H243.633V23.7534H265.358V33.9784H243.633V61.2972C243.633 66.3187 245.481 68.8424 249.149 68.8424C252.61 68.8424 255.706 65.6943 258.49 59.398L267.934 64.2373C263.329 74.4883 256.72 79.6139 248.161 79.6139Z" fill="#020203"/>
<path d="M271.884 103.238C266.472 103.238 262.023 101.729 258.484 98.7369L262.985 89.1883C265.171 91.7381 267.513 93.0129 270.062 93.0129C273.445 93.0129 275.136 90.8274 275.136 86.4824V23.7272H287.286V86.6906C287.286 92.5446 285.829 96.7595 282.941 99.3353C280.079 101.937 276.385 103.212 271.884 103.238ZM281.224 14.5168C279.221 14.5949 277.295 13.8664 275.812 12.4874C275.11 11.837 274.563 11.0304 274.199 10.1198C273.835 9.20914 273.653 8.27248 273.679 7.30981C273.653 6.34715 273.835 5.35849 274.199 4.47388C274.563 3.56325 275.11 2.75671 275.812 2.08025C277.269 0.75333 279.195 -0.00119019 281.198 -0.00119019C283.175 -0.00119019 285.101 0.75333 286.584 2.08025C287.286 2.75671 287.858 3.56323 288.249 4.44784C288.639 5.35847 288.821 6.32113 288.795 7.30981C288.821 8.27248 288.639 9.20917 288.249 10.0938C287.858 10.9784 287.312 11.7589 286.61 12.4094C285.907 13.0858 285.075 13.6322 284.138 13.9704C283.175 14.3607 282.213 14.5168 281.224 14.5168Z" fill="#020203"/>
<path d="M317.468 79.6137C311.25 79.6137 306.202 78.0526 302.325 74.9565C298.449 71.8343 296.523 67.6715 296.523 62.4159C296.523 57.6286 298.527 53.5438 302.534 50.2135C306.54 46.8832 311.588 45.218 317.676 45.218C323.894 45.218 329.15 47.1954 333.443 51.1761V44.5415C333.443 40.6388 332.454 37.6208 330.451 35.4873C328.473 33.3538 325.637 32.2871 321.943 32.2871C314.528 32.2871 309.897 36.0597 308.101 43.6309L296.966 41.2633C298.475 35.4092 301.441 30.8041 305.864 27.4217C310.287 24.0394 315.803 22.3743 322.411 22.3743C329.618 22.3743 335.29 24.2736 339.453 28.0462C343.616 31.8448 345.697 37.3606 345.697 44.6196V78.2348H333.885V71.3661C329.93 76.8819 324.467 79.6137 317.468 79.6137ZM319.731 70.6115C325.143 70.6115 329.722 67.9057 333.469 62.52V60.8288C329.722 56.3277 325.143 54.0901 319.731 54.0901C316.583 54.0901 314.033 54.8707 312.082 56.4057C311.171 57.0822 310.417 57.9668 309.897 59.0075C309.376 60.0222 309.142 61.167 309.142 62.3118C309.116 63.4566 309.35 64.6274 309.845 65.6681C310.339 66.7088 311.093 67.6194 312.004 68.3219C313.929 69.857 316.505 70.6115 319.731 70.6115Z" fill="#020203"/>
<path d="M357.57 78.2607V23.7271H369.382V33.1716C372.374 26.2769 377.552 22.8165 384.915 22.8165C389.26 22.8165 392.876 24.2474 395.712 27.0834C398.574 29.9193 399.979 33.744 399.979 38.5573C399.953 41.4193 399.459 44.2812 398.522 46.9871L387.387 45.8684C387.621 44.3854 387.777 42.8763 387.829 41.3673C387.829 35.7474 385.513 32.9374 380.856 32.9374C377.708 32.9374 375.054 34.6026 372.921 37.9329C370.787 41.2632 369.721 45.6602 369.721 51.15V78.2607H357.57Z" fill="#020203"/>
<path d="M28.7497 32.079C37.8039 27.0575 50.2144 20.1628 50.2144 0.128967H35.2021C35.2021 11.3427 29.7384 14.3868 21.4647 18.9659C12.4105 23.9874 0 30.8822 0 50.916H15.0123C15.0123 39.7022 20.476 36.6582 28.7497 32.079Z" fill="#E73C1F"/>
<path d="M54.7411 27.4738C54.7411 38.6875 49.2774 41.7316 41.0038 46.3108C31.9496 51.3322 19.5391 58.227 19.5391 78.2608H34.5513C34.5513 67.0471 40.0151 64.003 48.2888 59.4238C57.343 54.4023 69.7535 47.5076 69.7535 27.4738H54.7411Z" fill="#E73C1F"/>
</g>
<path d="M118.566 139.3C125.266 139.3 130.766 145.05 130.766 152.5C130.766 159.95 125.266 165.7 118.566 165.7C114.916 165.7 112.266 164.35 110.466 162.05V165H104.016V130H110.466V142.95C112.266 140.65 114.916 139.3 118.566 139.3ZM117.366 159.55C121.366 159.55 124.316 156.7 124.316 152.5C124.316 148.3 121.366 145.45 117.366 145.45C113.416 145.45 110.466 148.3 110.466 152.5C110.466 156.7 113.416 159.55 117.366 159.55ZM150.639 140H157.539L148.439 165C145.839 172.2 141.589 175.35 135.239 175V169C138.789 169.05 140.589 167.55 141.789 164.2L131.539 140H138.589L145.089 156.8L150.639 140ZM190.008 165.7C179.408 165.7 171.808 157.7 171.808 147.5C171.808 137.25 179.408 129.3 190.008 129.3C196.408 129.3 202.058 132.55 205.058 137.55L199.108 141C197.408 137.9 194.008 136 190.008 136C183.158 136 178.658 140.75 178.658 147.5C178.658 154.2 183.158 158.95 190.008 158.95C194.008 158.95 197.458 157.05 199.108 154L205.058 157.45C202.108 162.45 196.458 165.7 190.008 165.7ZM221.043 165.7C213.693 165.7 207.843 159.95 207.843 152.5C207.843 145.05 213.693 139.3 221.043 139.3C228.393 139.3 234.293 145.05 234.293 152.5C234.293 159.95 228.393 165.7 221.043 165.7ZM221.043 159.4C224.893 159.4 227.843 156.55 227.843 152.5C227.843 148.45 224.893 145.6 221.043 145.6C217.243 145.6 214.293 148.45 214.293 152.5C214.293 156.55 217.243 159.4 221.043 159.4ZM252.73 139.3C258.03 139.3 262.18 143 262.18 149.65V165H255.73V150.45C255.73 147.05 253.68 145.3 250.78 145.3C247.63 145.3 245.28 147.15 245.28 151.5V165H238.83V140H245.28V142.8C246.78 140.55 249.38 139.3 252.73 139.3ZM281.988 146.2H276.338V156.6C276.338 159.3 278.288 159.35 281.988 159.15V165C272.938 166 269.888 163.35 269.888 156.6V146.2H265.538V140H269.888V134.95L276.338 133V140H281.988V146.2ZM291.204 155.15C292.104 158.45 294.854 159.85 298.254 159.85C300.754 159.85 302.754 158.8 303.854 157.35L309.054 160.35C306.704 163.75 302.954 165.7 298.154 165.7C289.754 165.7 284.454 159.95 284.454 152.5C284.454 145.05 289.804 139.3 297.654 139.3C305.054 139.3 310.304 145.15 310.304 152.5C310.304 153.45 310.204 154.3 310.054 155.15H291.204ZM291.104 150.15H303.854C303.054 146.55 300.354 145.1 297.654 145.1C294.204 145.1 291.854 146.95 291.104 150.15ZM328.707 139.3C334.007 139.3 338.157 143 338.157 149.65V165H331.707V150.45C331.707 147.05 329.657 145.3 326.757 145.3C323.607 145.3 321.257 147.15 321.257 151.5V165H314.807V140H321.257V142.8C322.757 140.55 325.357 139.3 328.707 139.3ZM357.964 146.2H352.314V156.6C352.314 159.3 354.264 159.35 357.964 159.15V165C348.914 166 345.864 163.35 345.864 156.6V146.2H341.514V140H345.864V134.95L352.314 133V140H357.964V146.2ZM367.925 147.1C367.925 150.8 380.825 148.5 380.825 157.7C380.825 163.1 376.125 165.7 370.775 165.7C365.775 165.7 362.075 163.6 360.275 159.75L365.875 156.6C366.575 158.65 368.275 159.85 370.775 159.85C372.825 159.85 374.225 159.15 374.225 157.7C374.225 154.05 361.325 156.05 361.325 147.25C361.325 142.15 365.675 139.3 370.825 139.3C374.875 139.3 378.375 141.15 380.325 144.6L374.825 147.6C374.075 146 372.675 145.05 370.825 145.05C369.225 145.05 367.925 145.75 367.925 147.1ZM403.581 140H410.031V175H403.581V162.05C401.781 164.35 399.131 165.7 395.481 165.7C388.781 165.7 383.281 159.95 383.281 152.5C383.281 145.05 388.781 139.3 395.481 139.3C399.131 139.3 401.781 140.65 403.581 142.95V140ZM396.681 159.55C400.631 159.55 403.581 156.7 403.581 152.5C403.581 148.3 400.631 145.45 396.681 145.45C392.681 145.45 389.731 148.3 389.731 152.5C389.731 156.7 392.681 159.55 396.681 159.55ZM432.43 140H438.88V165H432.43V162.2C430.93 164.45 428.33 165.7 424.98 165.7C419.68 165.7 415.53 162 415.53 155.35V140H421.98V154.55C421.98 157.95 424.03 159.7 426.93 159.7C430.08 159.7 432.43 157.85 432.43 153.5V140ZM463.787 140H470.237V165H463.787V162.05C461.987 164.3 459.287 165.7 455.637 165.7C448.987 165.7 443.487 159.95 443.487 152.5C443.487 145.05 448.987 139.3 455.637 139.3C459.287 139.3 461.987 140.7 463.787 142.95V140ZM456.837 159.55C460.837 159.55 463.787 156.7 463.787 152.5C463.787 148.3 460.837 145.45 456.837 145.45C452.887 145.45 449.937 148.3 449.937 152.5C449.937 156.7 452.887 159.55 456.837 159.55ZM482.536 144.3C483.836 140.9 486.986 139.5 490.136 139.5V146.7C486.786 146.3 482.536 147.8 482.536 153.05V165H476.086V140H482.536V144.3ZM498.43 155.15C499.33 158.45 502.08 159.85 505.48 159.85C507.98 159.85 509.98 158.8 511.08 157.35L516.28 160.35C513.93 163.75 510.18 165.7 505.38 165.7C496.98 165.7 491.68 159.95 491.68 152.5C491.68 145.05 497.03 139.3 504.88 139.3C512.28 139.3 517.53 145.15 517.53 152.5C517.53 153.45 517.43 154.3 517.28 155.15H498.43ZM498.33 150.15H511.08C510.28 146.55 507.58 145.1 504.88 145.1C501.43 145.1 499.08 146.95 498.33 150.15Z" fill="#020203"/>
</svg>
