<svg width="163" height="32" viewBox="0 0 163 32" fill="none" xmlns="http://www.w3.org/2000/svg">
<path d="M156.018 23.1572C158.334 23.1572 160.68 22.3752 162.394 21.0218C162.424 20.9918 162.424 20.9617 162.394 20.9617L160.71 18.9166C160.68 18.8865 160.65 18.8865 160.65 18.9166C159.236 19.9091 157.703 20.4203 156.078 20.4203C153.642 20.4203 152.169 19.2775 151.808 17.1422L151.778 16.9016H162.755V16.1497C162.755 12.1196 159.507 8.81133 155.537 8.78125C155.507 8.78125 155.477 8.78125 155.447 8.78125C153.281 8.78125 151.357 9.50305 150.003 10.8564C148.71 12.1497 147.988 13.9843 147.988 15.9692C148.018 20.3301 151.146 23.1572 156.018 23.1572ZM152.078 14.0444C152.59 12.4504 153.793 11.5782 155.447 11.5782C157.101 11.5782 158.274 12.4504 158.815 14.0444C158.875 14.1948 158.845 14.3452 158.755 14.4655C158.665 14.5858 158.515 14.676 158.364 14.676H152.56C152.409 14.676 152.259 14.5858 152.169 14.4655C152.048 14.3452 152.018 14.1948 152.078 14.0444Z" fill="#A6A8B3"/>
<path d="M133.883 16.0298C133.883 20.12 137.191 23.2177 141.612 23.2177C143.778 23.2177 145.763 22.4659 147.206 21.0824V20.9922L145.161 18.7666C144.379 19.7591 143.146 20.3606 141.853 20.3606C141.191 20.3606 140.56 20.2102 139.958 19.9095C139.928 19.9095 139.898 19.8794 139.868 19.8493L139.838 19.8192L139.778 19.7892C138.936 19.3681 138.244 18.6162 137.883 17.714C137.793 17.5034 137.733 17.2929 137.673 17.0523C137.643 16.932 137.613 16.8418 137.613 16.7516L137.582 16.6012C137.582 16.541 137.552 16.4508 137.552 16.3907C137.552 16.3004 137.552 16.2102 137.552 16.12C137.552 16.0598 137.552 16.0298 137.552 16.0298C137.552 15.9395 137.552 15.8493 137.552 15.7591V15.6989C137.552 15.6689 137.552 15.6689 137.552 15.6388C137.612 15.1576 137.733 14.6463 137.943 14.1952C137.973 14.135 138.003 14.0448 138.034 13.9847C138.425 13.2027 139.026 12.6313 139.748 12.2403C140.379 11.8794 141.101 11.6989 141.853 11.6989C143.146 11.6989 144.349 12.2704 145.191 13.2929L147.237 11.0072C145.793 9.62375 143.778 8.8418 141.582 8.8418C137.191 8.8418 133.883 11.9395 133.883 16.0298Z" fill="#A6A8B3"/>
<path d="M131.838 22.555V15.5474C131.717 12.3595 130.845 9.41211 125.522 9.41211C124.409 9.41211 123.417 9.56249 122.575 9.89331L122.274 10.0136V9.47226C122.274 9.44218 122.244 9.44219 122.244 9.44219H119.266C119.236 9.44219 119.236 9.47226 119.236 9.47226V22.555C119.236 22.585 119.266 22.6151 119.296 22.6151H122.725C122.755 22.6151 122.785 22.585 122.785 22.555V15.1865C122.785 14.7655 122.845 14.3745 122.936 14.0136C123.326 12.9911 124.379 12.2693 125.552 12.2392C126.695 12.2392 127.778 12.961 128.169 13.9835C128.289 14.3444 128.319 14.7354 128.319 15.1565V22.5249C128.319 22.555 128.349 22.585 128.379 22.585L131.838 22.555C131.838 22.585 131.808 22.6151 131.838 22.555Z" fill="#A6A8B3"/>
<path d="M103.658 9.47226V16.5099C103.778 19.6978 104.65 22.6452 109.973 22.6452C115.387 22.6452 116.169 19.0362 116.289 16.3595V9.47226C116.289 9.44218 116.259 9.41211 116.229 9.41211H112.8C112.77 9.41211 112.74 9.44218 112.74 9.47226V16.8407C112.74 17.2617 112.68 17.6527 112.59 18.0136C112.199 19.0362 111.146 19.758 109.973 19.788C108.831 19.788 107.748 19.0662 107.357 18.0437C107.237 17.6828 107.206 17.2918 107.206 16.8708V9.47226C107.206 9.44218 107.176 9.41211 107.146 9.41211H103.718C103.688 9.41211 103.658 9.44218 103.658 9.47226Z" fill="#A6A8B3"/>
<path d="M93.7026 8.78125C89.3116 8.78125 85.9733 11.879 85.9733 15.9692C85.9733 20.0594 89.2815 23.1572 93.7026 23.1572C98.1236 23.1572 101.462 20.0594 101.462 15.9692C101.462 11.8489 98.1236 8.78125 93.7026 8.78125ZM93.7026 20.1797C91.4169 20.1797 89.6725 18.3752 89.6725 15.9692C89.6725 13.5933 91.447 11.7587 93.7026 11.7587C95.9883 11.7587 97.7627 13.6234 97.7627 15.9692C97.7627 18.3151 95.9582 20.1797 93.7026 20.1797Z" fill="#A6A8B3"/>
<path d="M77.9133 22.9156C81.5524 22.9156 84.3193 19.9081 84.3193 15.9382C84.3193 11.9983 81.5224 8.90057 77.9133 8.90057C75.9885 8.90057 74.2442 9.68252 73.0111 11.1261L72.6201 11.5472V2.76523C72.6201 2.73515 72.59 2.70508 72.5599 2.70508H69.1314C69.1013 2.70508 69.0712 2.73515 69.0712 2.76523V22.5547C69.0712 22.5848 69.1013 22.6149 69.1314 22.6149H72.3494C72.3795 22.6149 72.4096 22.5848 72.4096 22.5547V20.0885L72.8005 20.5397C74.0336 22.0735 75.8381 22.9156 77.9133 22.9156ZM77.1615 11.9081C79.4472 11.9081 81.1314 13.5923 81.1314 15.9081C81.1314 18.1938 79.4171 19.9081 77.1615 19.9081C74.9058 19.9081 73.1314 18.1637 73.1314 15.9382C73.1314 13.6524 74.8757 11.9081 77.1615 11.9081Z" fill="#A6A8B3"/>
<path d="M66.3039 22.6151C66.334 22.6151 66.3641 22.585 66.3641 22.555V15.5474C66.2438 12.3595 65.3716 9.41211 60.0483 9.41211C58.9355 9.41211 57.943 9.56249 57.1009 9.89331L56.8002 10.0136V9.47226C56.8002 9.44218 56.7701 9.44219 56.74 9.44219H53.7626C53.7325 9.44219 53.7325 9.47226 53.7325 9.47226V22.555C53.7325 22.585 53.7626 22.6151 53.7926 22.6151H57.2212C57.2513 22.6151 57.2814 22.585 57.2814 22.555V15.1865C57.2814 14.7655 57.3415 14.3745 57.4317 14.0136C57.8227 12.9911 58.8753 12.2693 60.0483 12.2392C61.1911 12.2392 62.2738 12.961 62.6648 13.9835C62.7851 14.3444 62.8152 14.7354 62.8152 15.1565V22.5249C62.8152 22.555 62.8453 22.585 62.8753 22.585H66.3039V22.6151Z" fill="#A6A8B3"/>
<path d="M38.3943 9.47226V16.5099C38.5146 19.6978 39.3868 22.6452 44.7101 22.6452C50.1236 22.6452 50.9056 19.0362 51.0259 16.3595V9.47226C51.0259 9.44218 50.9958 9.41211 50.9657 9.41211H47.5372C47.5071 9.41211 47.477 9.44218 47.477 9.47226V16.8407C47.477 17.2617 47.4169 17.6527 47.3266 18.0136C46.9357 19.0362 45.883 19.758 44.7101 19.788C43.5673 19.788 42.4845 19.0662 42.0936 18.0437C41.9733 17.6828 41.9432 17.2918 41.9432 16.8708V9.47226C41.9432 9.44218 41.9131 9.41211 41.883 9.41211H38.4545C38.3943 9.41211 38.3943 9.44218 38.3943 9.47226Z" fill="#A6A8B3"/>
<path d="M16.8003 0C7.95819 0 0.800293 7.1579 0.800293 16C0.800293 24.8421 7.95819 32 16.8003 32C25.6424 32 32.8003 24.8421 32.8003 16C32.8003 7.1579 25.6424 0 16.8003 0ZM16.2289 22.2857L15.0559 25.7444C15.0259 25.8647 14.9657 25.9549 14.9056 26.0451C14.7552 26.2857 14.5747 26.4662 14.3341 26.5865C14.1236 26.7068 13.883 26.7669 13.6424 26.7669C13.492 26.7669 13.3116 26.7368 13.1612 26.6767C12.4995 26.4361 12.0785 25.7744 12.1687 25.1128C8.86045 23.4286 6.6048 19.9699 6.6048 16C6.6048 10.3459 11.1762 5.74436 16.8604 5.74436C17.5221 5.74436 18.1537 5.80451 18.7853 5.92481C19.1462 5.35338 19.868 5.08271 20.5296 5.29323C20.8905 5.41353 21.1612 5.65414 21.3417 5.95489C21.492 6.22556 21.5823 6.52632 21.5522 6.85714C21.5522 6.97744 21.5221 7.09775 21.492 7.18797L20.3191 10.6466L16.2289 22.2857ZM17.5221 26.2256L18.9356 21.9549C21.3717 21.0827 23.1161 18.7669 23.1161 16C23.1161 14.7068 22.7251 13.4737 22.0334 12.4812L23.4469 8.21053C25.6424 10.0752 27.0559 12.8722 27.0559 16C27.0259 21.4135 22.8454 25.8346 17.5221 26.2256Z" fill="#A6A8B3"/>
<path d="M10.4847 15.9994C10.4847 18.2249 11.6576 20.1798 13.402 21.3227L17.3719 9.71367C17.1915 9.68359 16.981 9.68359 16.8005 9.68359C13.3118 9.68359 10.4847 12.5107 10.4847 15.9994Z" fill="#A6A8B3"/>
</svg>
